<svg xmlns="http://www.w3.org/2000/svg" xmlns:xlink="http://www.w3.org/1999/xlink" width="440" zoomAndPan="magnify" viewBox="0 0 330 374.999991" height="500" preserveAspectRatio="xMidYMid meet" version="1.0"><defs><g/></defs><path fill="#f9e4d9" d="M 83.546875 130.195312 L 48.847656 130.195312 C 44.828125 130.195312 41.558594 126.925781 41.558594 122.894531 L 41.558594 27.058594 C 41.558594 23.039062 44.828125 19.757812 48.847656 19.757812 L 144.6875 19.757812 C 148.707031 19.757812 151.972656 23.027344 151.972656 27.058594 L 151.972656 69.128906 L 151.035156 69.128906 L 151.035156 27.058594 C 151.035156 23.554688 148.1875 20.699219 144.6875 20.699219 L 48.855469 20.699219 C 45.351562 20.699219 42.507812 23.542969 42.507812 27.058594 L 42.507812 122.894531 C 42.507812 126.398438 45.351562 129.253906 48.855469 129.253906 L 83.558594 129.253906 L 83.558594 130.195312 Z M 83.546875 130.195312 " fill-opacity="1" fill-rule="nonzero"/><path fill="#efbf62" d="M 298.140625 275.949219 L 244.628906 275.949219 L 244.628906 219.648438 L 298.140625 219.648438 C 302.273438 219.648438 305.636719 223.007812 305.636719 227.140625 L 305.636719 268.453125 C 305.636719 272.585938 302.273438 275.949219 298.140625 275.949219 Z M 245.671875 274.898438 L 298.140625 274.898438 C 301.703125 274.898438 304.59375 272.003906 304.59375 268.445312 L 304.59375 227.132812 C 304.59375 223.574219 301.703125 220.679688 298.140625 220.679688 L 245.671875 220.679688 Z M 245.671875 274.898438 " fill-opacity="1" fill-rule="nonzero"/><path fill="#f9e4d9" d="M 85.324219 232.449219 L 24.101562 232.449219 C 19.179688 232.449219 15.167969 228.445312 15.167969 223.515625 L 15.167969 185.066406 C 15.167969 180.148438 19.167969 176.136719 24.101562 176.136719 L 85.324219 176.136719 Z M 24.101562 177.1875 C 19.753906 177.1875 16.222656 180.71875 16.222656 185.066406 L 16.222656 223.515625 C 16.222656 227.863281 19.753906 231.394531 24.101562 231.394531 L 84.28125 231.394531 L 84.28125 177.1875 Z M 24.101562 177.1875 " fill-opacity="1" fill-rule="nonzero"/><path fill="#f9e4d9" d="M 247.023438 58.207031 L 82 58.207031 C 77.820312 58.207031 74.429688 61.597656 74.429688 65.785156 L 74.429688 316.960938 C 74.429688 321.140625 77.820312 324.539062 82 324.539062 L 247.023438 324.539062 C 251.203125 324.539062 254.59375 321.140625 254.59375 316.960938 L 254.59375 65.785156 C 254.59375 61.597656 251.203125 58.207031 247.023438 58.207031 Z M 240.113281 255.023438 L 88.921875 255.023438 L 88.921875 76.257812 L 240.113281 76.257812 Z M 240.113281 255.023438 " fill-opacity="1" fill-rule="nonzero"/><path fill="#563025" d="M 92.046875 292.710938 L 236.976562 292.710938 L 236.976562 294.695312 L 92.046875 294.695312 Z M 92.046875 292.710938 " fill-opacity="0.4" fill-rule="nonzero"/><path fill="#563025" d="M 92.046875 302.449219 L 204.351562 302.449219 L 204.351562 304.433594 L 92.046875 304.433594 Z M 92.046875 302.449219 " fill-opacity="0.4" fill-rule="nonzero"/><path fill="#563025" d="M 129.726562 280.832031 L 129.585938 272.050781 L 122.304688 268.671875 L 137.265625 266.714844 Z M 126.027344 269.253906 L 130.617188 271.382812 L 130.703125 276.773438 L 135.378906 268.03125 Z M 126.027344 269.253906 " fill-opacity="1" fill-rule="nonzero"/><path fill="#563025" d="M 129.816406 271.265625 L 136.039062 266.921875 L 136.640625 267.785156 L 130.417969 272.128906 Z M 129.816406 271.265625 " fill-opacity="1" fill-rule="nonzero"/><path fill="#563025" d="M 120.324219 280.203125 L 116.773438 278.679688 C 116.109375 278.945312 115.402344 279.074219 114.679688 279.074219 C 111.460938 279.074219 108.839844 276.457031 108.839844 273.234375 C 108.839844 270.011719 111.460938 267.402344 114.679688 267.402344 C 117.902344 267.402344 120.523438 270.023438 120.523438 273.234375 C 120.523438 274.613281 120.035156 275.9375 119.132812 277 Z M 116.773438 277.546875 L 118.476562 278.277344 L 117.910156 276.773438 L 118.136719 276.539062 C 118.992188 275.636719 119.460938 274.472656 119.460938 273.242188 C 119.460938 270.605469 117.308594 268.453125 114.671875 268.453125 C 112.03125 268.453125 109.882812 270.605469 109.882812 273.242188 C 109.882812 275.882812 112.03125 278.035156 114.671875 278.035156 C 115.328125 278.035156 115.957031 277.902344 116.570312 277.640625 Z M 116.773438 277.546875 " fill-opacity="1" fill-rule="nonzero"/><path fill="#563025" d="M 97.90625 279.253906 L 92.292969 274.238281 C 90.582031 272.71875 90.433594 270.078125 91.953125 268.371094 C 92.6875 267.542969 93.699219 267.046875 94.808594 266.980469 C 95.898438 266.90625 96.976562 267.289062 97.804688 268.023438 L 98.113281 268.292969 L 98.566406 267.917969 C 99.417969 267.214844 100.492188 266.875 101.597656 266.988281 C 102.695312 267.09375 103.691406 267.628906 104.398438 268.480469 C 105.851562 270.246094 105.597656 272.878906 103.832031 274.332031 Z M 95.0625 268.03125 C 95.003906 268.03125 94.941406 268.03125 94.882812 268.039062 C 94.058594 268.085938 93.296875 268.453125 92.75 269.074219 C 91.617188 270.351562 91.726562 272.324219 93.003906 273.46875 L 97.945312 277.882812 L 103.195312 273.542969 C 104.507812 272.453125 104.707031 270.492188 103.617188 269.167969 C 103.089844 268.53125 102.351562 268.136719 101.523438 268.050781 C 100.707031 267.976562 99.898438 268.21875 99.261719 268.746094 L 98.113281 269.695312 L 97.136719 268.820312 C 96.546875 268.304688 95.824219 268.03125 95.0625 268.03125 Z M 95.0625 268.03125 " fill-opacity="1" fill-rule="nonzero"/><path fill="#e58b6e" d="M 203.628906 127.488281 L 212.71875 152.09375 C 212.71875 152.09375 216.886719 167.328125 217.601562 174.363281 C 219.394531 191.921875 208.800781 196.871094 205.535156 196.148438 C 193.164062 193.445312 199.335938 143.480469 199.335938 143.480469 Z M 203.628906 127.488281 " fill-opacity="1" fill-rule="nonzero"/><path fill="#563025" d="M 201.972656 183.988281 L 201.570312 183.960938 C 202.03125 178.003906 206.867188 168.285156 206.914062 168.191406 L 207.28125 168.371094 C 207.222656 168.464844 202.425781 178.117188 201.972656 183.988281 Z M 201.972656 183.988281 " fill-opacity="1" fill-rule="nonzero"/><path fill="#d54f56" d="M 198.734375 121.871094 C 209.027344 125.140625 215.828125 158.285156 215.828125 158.285156 C 215.828125 158.285156 199.371094 157.90625 198.789062 162.460938 L 188.574219 137.097656 L 196.460938 129.339844 Z M 198.734375 121.871094 " fill-opacity="1" fill-rule="nonzero"/><path fill="#563025" d="M 201.589844 155.886719 L 201.382812 155.4375 C 201.65625 155.316406 208.097656 152.386719 212.988281 152.609375 L 212.972656 153.109375 C 208.164062 152.890625 201.65625 155.851562 201.589844 155.886719 Z M 201.589844 155.886719 " fill-opacity="1" fill-rule="nonzero"/><path fill="#e58b6e" d="M 224.804688 152.214844 L 221.855469 150.234375 C 221.855469 150.234375 225.40625 145.785156 222.4375 144.09375 C 222.4375 144.09375 219.527344 145.464844 217.75 147.398438 C 215.976562 149.332031 213 152.253906 213 152.253906 L 218.238281 153.738281 Z M 224.804688 152.214844 " fill-opacity="1" fill-rule="nonzero"/><path fill="#563025" d="M 225.808594 137.585938 L 216.972656 165.691406 L 202.527344 168.003906 L 210.988281 139.839844 Z M 225.808594 137.585938 " fill-opacity="1" fill-rule="nonzero"/><path fill="#e58b6e" d="M 221.855469 150.234375 C 221.855469 150.234375 227.425781 152.039062 227.253906 153.738281 C 227.085938 155.4375 225.734375 156.527344 225.734375 156.527344 C 225.734375 156.527344 227.292969 158.640625 224.730469 160.097656 C 224.730469 160.097656 224.84375 162.820312 221.453125 163.1875 C 221.453125 163.1875 220.203125 165.015625 218.859375 164.960938 C 217.515625 164.902344 211.808594 163.84375 211.175781 163.027344 C 211.175781 163.027344 210.753906 162.773438 210.941406 162.292969 C 210.941406 162.292969 209.382812 161.851562 209.234375 160.726562 C 209.082031 159.609375 210.765625 159.824219 210.765625 159.824219 C 210.765625 159.824219 208.894531 158.105469 209.222656 157.164062 C 209.554688 156.226562 215.714844 157.035156 215.714844 157.035156 C 215.714844 157.035156 211.542969 154.894531 213.320312 154.234375 C 215.09375 153.578125 217.890625 154.132812 220.371094 153.191406 C 222.859375 152.273438 221.855469 150.234375 221.855469 150.234375 Z M 221.855469 150.234375 " fill-opacity="1" fill-rule="nonzero"/><path fill="#563025" d="M 217.921875 157.4375 C 216.644531 157.4375 215.734375 157.257812 215.675781 157.25 L 215.761719 156.847656 C 215.78125 156.847656 217.78125 157.242188 219.996094 156.855469 C 222.257812 156.453125 224.832031 156.105469 224.851562 156.09375 L 224.90625 156.5 C 224.878906 156.5 222.316406 156.855469 220.0625 157.257812 C 219.292969 157.390625 218.558594 157.4375 217.921875 157.4375 Z M 217.921875 157.4375 " fill-opacity="1" fill-rule="nonzero"/><path fill="#563025" d="M 217.421875 161.136719 C 215.085938 161.136719 210.886719 160.078125 210.699219 160.03125 L 210.800781 159.636719 C 210.847656 159.644531 215.5625 160.835938 217.742188 160.726562 C 219.941406 160.613281 223.480469 159.945312 223.519531 159.9375 L 223.59375 160.339844 C 223.554688 160.347656 219.988281 161.015625 217.761719 161.128906 C 217.65625 161.136719 217.546875 161.136719 217.421875 161.136719 Z M 217.421875 161.136719 " fill-opacity="1" fill-rule="nonzero"/><path fill="#563025" d="M 217.769531 163.617188 C 217.039062 163.617188 216.304688 163.578125 215.695312 163.484375 L 215.761719 163.082031 C 217.796875 163.421875 221.386719 162.996094 221.421875 162.988281 L 221.46875 163.390625 C 221.367188 163.410156 219.554688 163.617188 217.769531 163.617188 Z M 217.769531 163.617188 " fill-opacity="1" fill-rule="nonzero"/><path fill="#e58b6e" d="M 152.855469 121.742188 C 152.855469 121.742188 133.566406 125.386719 127.3125 129.386719 C 123.648438 131.734375 120.4375 145.277344 127.632812 163.992188 C 134.824219 182.710938 138.261719 189.386719 138.621094 208.6875 C 138.714844 213.851562 202.003906 223.394531 199.777344 208.628906 C 198.480469 199.980469 197.710938 197.277344 198.988281 182.878906 C 200.265625 168.480469 201.984375 159.429688 198.78125 147.753906 C 195.578125 136.082031 193.523438 128.804688 192.882812 120.972656 L 174.15625 119.28125 C 174.15625 119.28125 175.613281 131.046875 168.738281 130.398438 C 161.863281 129.769531 152.855469 121.742188 152.855469 121.742188 Z M 152.855469 121.742188 " fill-opacity="1" fill-rule="nonzero"/><path fill="#e58b6e" d="M 238.535156 339.847656 L 238.347656 309.859375 L 222.222656 311.355469 L 224.796875 340.496094 Z M 238.535156 339.847656 " fill-opacity="1" fill-rule="nonzero"/><path fill="#e58b6e" d="M 164.4375 352.796875 L 161.496094 355.617188 L 154.210938 349.699219 L 154.558594 334.851562 L 157.695312 323.460938 L 167.941406 332.636719 C 166.699219 334.53125 165.910156 335.949219 165.84375 336.496094 C 165.542969 339.117188 164.4375 352.796875 164.4375 352.796875 Z M 164.4375 352.796875 " fill-opacity="1" fill-rule="nonzero"/><path fill="#d54f56" d="M 157.710938 323.421875 C 157.710938 323.421875 154.839844 323.355469 152.265625 325.816406 C 149.691406 328.277344 146.300781 335.019531 142.402344 338.28125 L 145.558594 341.585938 L 151.863281 335.574219 L 151.550781 348.976562 L 153.175781 350.675781 L 166.042969 364.152344 C 166.042969 364.152344 167.535156 364.367188 168.050781 362.332031 C 168.578125 360.3125 164.445312 352.796875 164.445312 352.796875 C 164.445312 352.796875 162.3125 354.011719 159.335938 350.882812 C 156.417969 347.820312 157.664062 324.511719 157.695312 323.449219 C 157.695312 323.429688 157.710938 323.421875 157.710938 323.421875 Z M 157.710938 323.421875 " fill-opacity="1" fill-rule="nonzero"/><path fill="#e58b6e" d="M 250.179688 356.6875 L 250.058594 360.753906 L 240.714844 361.644531 L 230.550781 350.816406 L 224.804688 340.496094 L 238.542969 339.847656 C 238.996094 342.0625 239.417969 343.632812 239.753906 344.066406 C 241.378906 346.160156 250.179688 356.6875 250.179688 356.6875 Z M 250.179688 356.6875 " fill-opacity="1" fill-rule="nonzero"/><path fill="#d54f56" d="M 224.785156 340.46875 C 224.785156 340.46875 222.691406 342.429688 222.578125 346 C 222.464844 349.566406 224.777344 357.925781 224.296875 362.980469 L 228.863281 363.121094 L 229.132812 353.230469 L 238.308594 363.007812 L 240.667969 363.082031 L 259.289062 363.675781 C 259.289062 363.675781 260.5 362.773438 259.449219 360.960938 C 258.40625 359.148438 250.191406 356.6875 250.191406 356.6875 C 250.191406 356.6875 249.523438 359.042969 245.203125 358.902344 C 240.976562 358.773438 225.519531 341.273438 224.804688 340.496094 C 224.785156 340.488281 224.785156 340.46875 224.785156 340.46875 Z M 224.785156 340.46875 " fill-opacity="1" fill-rule="nonzero"/><path fill="#e58b6e" d="M 167.507812 332.8125 L 189.191406 309.691406 L 173.03125 298.507812 L 157.542969 324.03125 Z M 167.507812 332.8125 " fill-opacity="1" fill-rule="nonzero"/><path fill="#563025" d="M 162.546875 232.101562 L 173.480469 199.023438 L 196.554688 206.960938 C 196.554688 206.960938 236.148438 237.546875 239.3125 251.644531 C 242.480469 265.738281 243.0625 324.933594 243.0625 324.933594 C 243.0625 324.933594 221.09375 331.179688 220.175781 325.527344 C 214.15625 288.335938 214.898438 267.488281 214.898438 267.488281 Z M 162.546875 232.101562 " fill-opacity="1" fill-rule="nonzero"/><path fill="#563025" d="M 144.46875 202.367188 C 134.449219 208.894531 131.304688 239.246094 141.664062 250.890625 C 152.019531 262.539062 186.28125 272.878906 186.28125 272.878906 C 186.28125 272.878906 177.304688 290.15625 164.972656 310.660156 C 164.972656 310.660156 164.820312 313.984375 174.070312 322.644531 C 178.175781 326.484375 181.324219 324.71875 181.324219 324.71875 C 181.324219 324.71875 219.507812 278.109375 216.914062 262.585938 C 214.324219 247.050781 174.917969 230.945312 174.917969 230.945312 L 178.65625 200.167969 C 178.65625 200.167969 151.785156 197.597656 144.46875 202.367188 Z M 144.46875 202.367188 " fill-opacity="1" fill-rule="nonzero"/><path fill="#f9e4d9" d="M 216.285156 270.953125 L 215.496094 270.699219 C 216.519531 267.488281 216.859375 264.78125 216.503906 262.660156 C 213.976562 247.519531 181.304688 231.621094 180.976562 231.460938 L 181.332031 230.71875 C 181.417969 230.757812 189.746094 234.796875 198.292969 240.675781 C 209.824219 248.621094 216.222656 255.964844 217.320312 262.519531 C 217.695312 264.78125 217.347656 267.617188 216.285156 270.953125 Z M 216.285156 270.953125 " fill-opacity="1" fill-rule="nonzero"/><path fill="#563025" d="M 129.257812 199.859375 C 129.257812 199.859375 129.726562 203.691406 145.792969 202.292969 C 161.863281 200.890625 149.4375 190.703125 149.4375 190.703125 L 135.144531 193.230469 L 130.101562 196.589844 Z M 129.257812 199.859375 " fill-opacity="1" fill-rule="nonzero"/><path fill="#f9e4d9" d="M 199.945312 209.324219 C 199.945312 209.324219 187.125 212.847656 169.265625 211.804688 C 151.402344 210.761719 138.722656 209.355469 138.621094 208.707031 C 136.761719 196.449219 131.621094 175.949219 129.039062 167.730469 C 119.515625 145.886719 123.488281 133.03125 126.449219 130.203125 C 129.6875 127.113281 136.984375 125.582031 141.117188 124.738281 C 143.390625 124.265625 145.023438 123.402344 145.023438 123.402344 C 148.6875 126.023438 153.203125 133.21875 157.175781 137.066406 C 175.59375 146.226562 182.535156 140.375 180.15625 119.816406 C 180.15625 119.816406 180.984375 119.824219 182.222656 119.855469 C 185.5 119.9375 197.484375 121.101562 198.734375 121.882812 C 201.109375 128.972656 197.550781 133.960938 199.617188 141.921875 C 204.746094 161.691406 195.511719 177.65625 199.945312 209.324219 Z M 199.945312 209.324219 " fill-opacity="1" fill-rule="nonzero"/><path fill="#d54f56" d="M 201.355469 158.855469 C 201.289062 159.871094 201.214844 160.867188 201.136719 161.832031 C 200.867188 165.28125 200.546875 168.464844 200.285156 171.082031 C 200.238281 171.636719 200.179688 172.164062 200.132812 172.660156 C 200.097656 173.132812 200.039062 173.589844 200.011719 174.0625 C 199.730469 177.46875 199.65625 180.625 199.671875 183.425781 C 199.671875 184.464844 199.691406 185.472656 199.710938 186.402344 C 199.871094 192.140625 200.292969 195.765625 199.703125 195.933594 C 198.714844 196.214844 185.640625 197.800781 182.695312 196.113281 C 182.695312 196.113281 182.496094 192.035156 182.195312 186.484375 C 182.148438 185.539062 182.09375 184.542969 182.035156 183.507812 C 181.875 180.550781 181.699219 177.347656 181.527344 174.191406 C 181.472656 173.1875 181.40625 172.203125 181.359375 171.214844 C 181.265625 169.675781 181.179688 168.191406 181.105469 166.773438 C 181.003906 165.15625 180.910156 163.570312 180.785156 162.039062 C 180.722656 161.027344 180.636719 160.019531 180.5625 159.0625 C 179.886719 150.929688 179.078125 144.710938 178.863281 142.675781 C 178.578125 140.015625 175.941406 127.433594 175.507812 125.195312 C 174.925781 122.191406 179.238281 114.359375 179.238281 114.359375 C 179.238281 114.359375 182.035156 119.402344 182.789062 119.507812 C 183.527344 119.601562 195.691406 120.613281 198.726562 121.882812 C 198.726562 121.882812 200.539062 123.480469 201.570312 145.117188 C 201.796875 149.585938 201.644531 154.367188 201.355469 158.855469 Z M 201.355469 158.855469 " fill-opacity="1" fill-rule="nonzero"/><path fill="#563025" d="M 201.609375 158.875 L 201.109375 158.847656 C 201.449219 153.570312 201.523438 149.078125 201.335938 145.125 L 201.832031 145.105469 C 202.019531 149.070312 201.945312 153.578125 201.609375 158.875 Z M 201.609375 158.875 " fill-opacity="1" fill-rule="nonzero"/><path fill="#563025" d="M 180.09375 129.847656 L 179.714844 129.515625 C 183.78125 124.90625 182.570312 119.609375 182.5625 119.554688 L 183.039062 119.441406 C 183.050781 119.496094 184.328125 125.039062 180.09375 129.847656 Z M 180.09375 129.847656 " fill-opacity="1" fill-rule="nonzero"/><path fill="#563025" d="M 185.6875 114.132812 C 185.6875 114.132812 178.390625 117.074219 159.128906 112.753906 C 153.945312 111.589844 150.125 111.324219 147.410156 111.296875 L 148.835938 104.386719 C 148.835938 104.386719 146.707031 109.296875 145.8125 111.308594 C 140.113281 111.382812 140.949219 112.066406 144.234375 102.921875 C 148.855469 90.035156 150.394531 71.902344 156.933594 67.675781 C 164.851562 62.554688 189.886719 80.222656 189.886719 80.222656 C 189.886719 80.222656 191.398438 107.683594 185.6875 114.132812 Z M 185.6875 114.132812 " fill-opacity="1" fill-rule="nonzero"/><path fill="#e58b6e" d="M 173.285156 110.320312 C 173.285156 110.320312 175.433594 131.613281 176.128906 133.828125 C 176.824219 136.042969 158.679688 132.390625 154.96875 130.777344 C 151.261719 129.160156 151.570312 125.609375 151.570312 125.609375 C 151.570312 125.609375 156.933594 113.035156 156.117188 107.054688 C 155.296875 101.070312 173.285156 110.320312 173.285156 110.320312 Z M 173.285156 110.320312 " fill-opacity="1" fill-rule="nonzero"/><path fill="#d54f56" d="M 166.8125 196.300781 C 165.320312 200.414062 144.761719 200.046875 135.605469 197.613281 C 135.605469 197.613281 131.679688 196.582031 129.246094 199.859375 C 129.019531 200.160156 129.011719 196.742188 129.132812 192.234375 C 129.164062 191.285156 129.191406 190.269531 129.238281 189.246094 C 129.359375 186.082031 129.539062 182.683594 129.746094 179.789062 C 129.808594 178.710938 129.902344 177.6875 129.980469 176.785156 C 129.980469 176.757812 129.988281 176.726562 129.988281 176.691406 C 130.148438 174.992188 130.535156 171.636719 131.039062 167.421875 C 131.152344 166.453125 131.265625 165.449219 131.398438 164.40625 C 133.285156 148.824219 136.28125 125.339844 136.28125 125.339844 C 136.28125 125.339844 151.203125 121.5625 151.757812 121 C 152.320312 120.445312 154.746094 115.863281 154.746094 115.863281 C 154.746094 115.863281 161.855469 121.5625 164.746094 122.492188 C 167.648438 123.421875 164.089844 129.5 164.277344 136.136719 C 164.464844 142.769531 164.183594 150.347656 164.558594 158.378906 C 164.597656 159.136719 164.660156 160.066406 164.738281 161.109375 C 164.804688 162.011719 164.898438 163.007812 164.992188 164.078125 C 165.234375 166.78125 165.542969 169.9375 165.863281 173.214844 C 165.957031 174.203125 166.050781 175.1875 166.144531 176.183594 C 166.445312 179.367188 166.710938 182.558594 166.90625 185.441406 C 166.972656 186.476562 167.039062 187.480469 167.085938 188.421875 C 167.273438 192.195312 167.246094 195.136719 166.8125 196.300781 Z M 166.8125 196.300781 " fill-opacity="1" fill-rule="nonzero"/><path fill="#563025" d="M 161.648438 130.550781 C 155.035156 126.550781 151.597656 121.175781 151.570312 121.128906 L 151.992188 120.867188 C 152.03125 120.925781 155.402344 126.191406 161.910156 130.128906 Z M 161.648438 130.550781 " fill-opacity="1" fill-rule="nonzero"/><path fill="#563025" d="M 190.84375 76.578125 C 190.84375 77.066406 190.796875 77.546875 190.703125 78.027344 C 190.605469 78.503906 190.464844 78.96875 190.28125 79.421875 C 190.09375 79.871094 189.863281 80.300781 189.59375 80.703125 C 189.324219 81.109375 189.015625 81.484375 188.667969 81.832031 C 188.324219 82.175781 187.949219 82.484375 187.542969 82.753906 C 187.136719 83.027344 186.710938 83.253906 186.257812 83.441406 C 185.808594 83.628906 185.34375 83.769531 184.867188 83.863281 C 184.386719 83.957031 183.90625 84.007812 183.417969 84.007812 C 182.929688 84.007812 182.445312 83.957031 181.96875 83.863281 C 181.488281 83.769531 181.023438 83.628906 180.574219 83.441406 C 180.125 83.253906 179.695312 83.027344 179.289062 82.753906 C 178.882812 82.484375 178.507812 82.175781 178.164062 81.832031 C 177.820312 81.484375 177.511719 81.109375 177.238281 80.703125 C 176.96875 80.300781 176.738281 79.871094 176.554688 79.421875 C 176.367188 78.96875 176.226562 78.503906 176.128906 78.027344 C 176.035156 77.546875 175.988281 77.066406 175.988281 76.578125 C 175.988281 76.089844 176.035156 75.605469 176.128906 75.128906 C 176.226562 74.648438 176.367188 74.1875 176.554688 73.734375 C 176.738281 73.285156 176.96875 72.855469 177.238281 72.449219 C 177.511719 72.046875 177.820312 71.667969 178.164062 71.324219 C 178.507812 70.980469 178.882812 70.671875 179.289062 70.402344 C 179.695312 70.128906 180.125 69.902344 180.574219 69.714844 C 181.023438 69.527344 181.488281 69.386719 181.96875 69.292969 C 182.445312 69.195312 182.929688 69.148438 183.417969 69.148438 C 183.90625 69.148438 184.386719 69.195312 184.867188 69.292969 C 185.34375 69.386719 185.808594 69.527344 186.257812 69.714844 C 186.710938 69.902344 187.136719 70.128906 187.542969 70.402344 C 187.949219 70.671875 188.324219 70.980469 188.667969 71.324219 C 189.015625 71.667969 189.324219 72.046875 189.59375 72.449219 C 189.863281 72.855469 190.09375 73.285156 190.28125 73.734375 C 190.464844 74.1875 190.605469 74.648438 190.703125 75.128906 C 190.796875 75.605469 190.84375 76.089844 190.84375 76.578125 Z M 190.84375 76.578125 " fill-opacity="1" fill-rule="nonzero"/><path fill="#e58b6e" d="M 169.460938 122.117188 C 161.523438 121.367188 156.90625 111.738281 155.777344 103.25 C 154.652344 94.769531 158.136719 65.984375 175.441406 68.921875 C 192.75 71.863281 189.867188 90.582031 188.160156 98.957031 C 186.449219 107.335938 180.203125 123.140625 169.460938 122.117188 Z M 169.460938 122.117188 " fill-opacity="1" fill-rule="nonzero"/><path fill="#563025" d="M 172.269531 121.9375 C 169.339844 121.9375 164.050781 120.632812 159.964844 112.339844 L 160.40625 112.125 C 166.144531 123.769531 173.96875 121.308594 174.296875 121.195312 L 174.457031 121.667969 C 174.4375 121.667969 173.601562 121.9375 172.269531 121.9375 Z M 172.269531 121.9375 " fill-opacity="1" fill-rule="nonzero"/><path fill="#563025" d="M 182.941406 96.671875 C 183.113281 96.707031 183.273438 96.78125 183.417969 96.894531 C 183.5625 97.007812 183.679688 97.148438 183.773438 97.324219 C 183.867188 97.496094 183.925781 97.6875 183.953125 97.898438 C 183.980469 98.105469 183.972656 98.316406 183.933594 98.527344 C 183.890625 98.738281 183.816406 98.933594 183.710938 99.117188 C 183.605469 99.296875 183.476562 99.453125 183.324219 99.578125 C 183.171875 99.703125 183.007812 99.789062 182.832031 99.835938 C 182.65625 99.886719 182.480469 99.894531 182.304688 99.859375 C 182.132812 99.824219 181.972656 99.75 181.832031 99.636719 C 181.6875 99.523438 181.566406 99.382812 181.476562 99.207031 C 181.382812 99.035156 181.320312 98.84375 181.292969 98.632812 C 181.265625 98.425781 181.273438 98.214844 181.316406 98.003906 C 181.359375 97.792969 181.433594 97.597656 181.539062 97.414062 C 181.640625 97.234375 181.769531 97.078125 181.921875 96.953125 C 182.074219 96.828125 182.242188 96.742188 182.417969 96.695312 C 182.59375 96.644531 182.769531 96.636719 182.941406 96.671875 Z M 182.941406 96.671875 " fill-opacity="1" fill-rule="nonzero"/><path fill="#563025" d="M 175.144531 107.390625 C 175.066406 107.390625 174.992188 107.382812 174.917969 107.371094 L 174.523438 107.316406 L 174.589844 106.828125 L 174.984375 106.882812 C 175.3125 106.929688 175.632812 106.828125 175.875 106.601562 C 176.121094 106.375 176.242188 106.058594 176.222656 105.730469 L 176.089844 103.804688 L 176.589844 103.765625 L 176.71875 105.691406 C 176.757812 106.171875 176.570312 106.628906 176.222656 106.960938 C 175.921875 107.242188 175.539062 107.390625 175.144531 107.390625 Z M 175.144531 107.390625 " fill-opacity="1" fill-rule="nonzero"/><path fill="#563025" d="M 172.296875 92.46875 C 172.296875 92.46875 168.710938 90.84375 165.835938 92.65625 Z M 172.296875 92.46875 " fill-opacity="1" fill-rule="nonzero"/><path fill="#563025" d="M 180.851562 93.894531 C 180.851562 93.894531 183.886719 93.125 186.523438 95.699219 Z M 180.851562 93.894531 " fill-opacity="1" fill-rule="nonzero"/><path fill="#563025" d="M 182.363281 96.683594 C 182.363281 96.683594 184.382812 96.066406 185.941406 97.699219 C 185.941406 97.699219 184.214844 97.144531 183.078125 97.425781 Z M 182.363281 96.683594 " fill-opacity="1" fill-rule="nonzero"/><path fill="#563025" d="M 170.085938 96.320312 C 170.257812 96.355469 170.417969 96.429688 170.5625 96.542969 C 170.707031 96.65625 170.824219 96.796875 170.917969 96.972656 C 171.007812 97.144531 171.070312 97.335938 171.097656 97.546875 C 171.125 97.753906 171.117188 97.964844 171.074219 98.175781 C 171.03125 98.386719 170.960938 98.582031 170.855469 98.765625 C 170.75 98.945312 170.621094 99.101562 170.46875 99.226562 C 170.316406 99.351562 170.152344 99.4375 169.972656 99.488281 C 169.796875 99.535156 169.625 99.542969 169.449219 99.507812 C 169.277344 99.472656 169.117188 99.398438 168.972656 99.289062 C 168.828125 99.175781 168.710938 99.03125 168.617188 98.855469 C 168.523438 98.683594 168.464844 98.492188 168.4375 98.285156 C 168.410156 98.074219 168.417969 97.867188 168.460938 97.652344 C 168.5 97.441406 168.574219 97.246094 168.679688 97.0625 C 168.785156 96.882812 168.914062 96.730469 169.066406 96.605469 C 169.21875 96.480469 169.382812 96.390625 169.558594 96.34375 C 169.738281 96.292969 169.910156 96.285156 170.085938 96.320312 Z M 170.085938 96.320312 " fill-opacity="1" fill-rule="nonzero"/><path fill="#563025" d="M 170.617188 96.554688 C 170.617188 96.554688 168.992188 95.210938 166.914062 96.121094 C 166.914062 96.121094 168.726562 96.273438 169.667969 96.964844 Z M 170.617188 96.554688 " fill-opacity="1" fill-rule="nonzero"/><path fill="#563025" d="M 158.546875 96.195312 C 159.824219 94.777344 160.519531 89.574219 166.605469 89.171875 C 174.261719 88.664062 181.894531 79.167969 181.894531 79.167969 C 181.894531 79.167969 186.460938 83.40625 189.0625 94.28125 C 189.0625 94.28125 198.507812 71.609375 181.867188 69.65625 C 180.523438 69.496094 176.457031 64.339844 166.53125 64.433594 C 148.507812 64.605469 148.847656 88.328125 153.957031 94.695312 C 154.792969 95.726562 158.546875 96.195312 158.546875 96.195312 Z M 158.546875 96.195312 " fill-opacity="1" fill-rule="nonzero"/><path fill="#563025" d="M 186.367188 77.152344 C 185.257812 73.554688 181.714844 69.863281 181.6875 69.824219 L 182.046875 69.476562 C 182.195312 69.628906 185.699219 73.289062 186.84375 77 Z M 186.367188 77.152344 " fill-opacity="1" fill-rule="nonzero"/><path fill="#563025" d="M 158.96875 69.796875 L 158.640625 69.429688 C 163.515625 65.054688 171.265625 67.375 171.347656 67.394531 L 171.199219 67.863281 C 171.125 67.84375 163.628906 65.609375 158.96875 69.796875 Z M 158.96875 69.796875 " fill-opacity="1" fill-rule="nonzero"/><path fill="#563025" d="M 164.277344 87.03125 C 167.535156 88.109375 170.953125 88.957031 174.203125 89.621094 L 175.632812 85.574219 L 175.640625 89.914062 C 184.421875 91.574219 191.765625 91.933594 191.765625 91.933594 C 193.757812 82.035156 190.085938 73.429688 190.085938 73.429688 Z M 164.277344 87.03125 " fill-opacity="1" fill-rule="nonzero"/><path fill="#e58b6e" d="M 157.289062 96.007812 C 157.289062 96.007812 152.304688 93.351562 151.242188 97.8125 C 150.179688 102.28125 156.605469 107.417969 156.605469 107.417969 Z M 157.289062 96.007812 " fill-opacity="1" fill-rule="nonzero"/><path fill="#563025" d="M 155.296875 98.308594 C 155.296875 98.308594 152.085938 98.140625 154.6875 102.367188 Z M 155.296875 98.308594 " fill-opacity="1" fill-rule="nonzero"/><path fill="#563025" d="M 176.863281 112.039062 C 176.730469 112.351562 176.503906 112.726562 176.222656 113.082031 C 175.648438 113.816406 174.851562 114.5 174.15625 114.511719 C 173.675781 114.519531 173.160156 114.179688 172.71875 113.722656 C 172.148438 113.101562 171.695312 112.265625 171.613281 111.644531 C 171.574219 111.371094 171.613281 111.136719 171.722656 111.007812 C 172.25 110.425781 173.519531 111.082031 174.371094 111.242188 C 175.21875 111.421875 176.457031 110.980469 176.910156 111.371094 C 177.03125 111.476562 177.003906 111.71875 176.863281 112.039062 Z M 176.863281 112.039062 " fill-opacity="1" fill-rule="nonzero"/><path fill="#f9e4d9" d="M 176.863281 112.039062 C 176.277344 112.199219 175.339844 112.40625 174.625 112.292969 C 173.6875 112.152344 172.117188 111.777344 171.613281 111.65625 C 171.574219 111.382812 171.613281 111.148438 171.722656 111.015625 C 172.25 110.433594 173.519531 111.089844 174.371094 111.25 C 175.21875 111.429688 176.457031 110.988281 176.910156 111.382812 C 177.03125 111.476562 177.003906 111.71875 176.863281 112.039062 Z M 176.863281 112.039062 " fill-opacity="1" fill-rule="nonzero"/><path fill="#563025" d="M 123.179688 165.234375 C 123.179688 165.234375 123.386719 166.914062 130.816406 164.667969 C 138.242188 162.425781 130.75 158.5 130.75 158.5 L 123.882812 162.144531 Z M 123.179688 165.234375 " fill-opacity="1" fill-rule="nonzero"/><path fill="#e58b6e" d="M 181.097656 156.753906 L 154.132812 171.855469 L 148.019531 174.738281 L 144.640625 159.617188 C 135.613281 159.609375 128.804688 160.265625 126.203125 161.523438 C 129.191406 180.417969 135.246094 197.691406 142.058594 198.769531 C 147.550781 199.644531 152.011719 196.273438 154.117188 194.722656 C 163.375 187.921875 186.367188 165.964844 186.367188 165.964844 Z M 181.097656 156.753906 " fill-opacity="1" fill-rule="nonzero"/><path fill="#d54f56" d="M 144.628906 159.617188 C 135.605469 159.609375 125.5 161.804688 123.179688 165.242188 C 122.101562 158.460938 123.527344 150.921875 123.019531 145.613281 C 121.40625 128.746094 129.679688 127.066406 136.300781 125.339844 C 138.421875 124.785156 138.84375 133.742188 138.84375 133.742188 Z M 144.628906 159.617188 " fill-opacity="1" fill-rule="nonzero"/><path fill="#e58b6e" d="M 192.039062 164.492188 L 200.527344 164.660156 L 200.386719 160.960938 L 191.042969 160.265625 L 191.164062 163.816406 Z M 192.039062 164.492188 " fill-opacity="1" fill-rule="nonzero"/><path fill="#e58b6e" d="M 180.675781 156.976562 C 180.675781 156.976562 186.667969 152.84375 188.816406 152.226562 C 190.96875 151.605469 195.316406 149.25 197.511719 148.335938 C 199.992188 147.3125 206.800781 145.285156 206.800781 145.671875 C 206.800781 146.054688 207.535156 147.765625 204.3125 149.351562 C 201.089844 150.9375 197.277344 153.503906 197.277344 153.503906 C 197.277344 153.503906 200.460938 154.800781 200.847656 155.382812 C 201.230469 155.964844 201.992188 165.308594 201.550781 165.710938 C 201.109375 166.117188 199.402344 164.199219 199.222656 162.613281 C 199.222656 162.613281 198.566406 162.773438 196.488281 160.808594 C 194.414062 158.855469 192.246094 158.640625 192.246094 158.640625 L 192.113281 160.078125 L 192.039062 164.5 C 192.039062 164.5 187.886719 165.917969 186.355469 165.976562 C 184.824219 166.03125 183.058594 166.171875 183.058594 166.171875 Z M 180.675781 156.976562 " fill-opacity="1" fill-rule="nonzero"/><path fill="#563025" d="M 199.175781 162.867188 C 198.875 162.867188 198.078125 162.648438 196.320312 160.988281 L 196.660156 160.632812 C 198.507812 162.378906 199.175781 162.367188 199.183594 162.367188 L 199.277344 162.855469 C 199.261719 162.855469 199.222656 162.867188 199.175781 162.867188 Z M 199.175781 162.867188 " fill-opacity="1" fill-rule="nonzero"/><path fill="#563025" d="M 199.703125 162.96875 C 199.417969 162.96875 199.15625 162.847656 199.117188 162.828125 L 199.335938 162.378906 C 199.484375 162.453125 199.75 162.507812 199.84375 162.433594 C 199.917969 162.367188 199.953125 162.144531 199.84375 161.683594 C 199.457031 160.207031 197.832031 157.691406 196.847656 157.023438 C 195.886719 156.386719 192.339844 155.90625 192.300781 155.90625 L 192.367188 155.417969 C 192.515625 155.4375 196.066406 155.917969 197.117188 156.621094 C 198.21875 157.351562 199.898438 159.945312 200.320312 161.5625 C 200.480469 162.179688 200.433594 162.59375 200.160156 162.820312 C 200.019531 162.933594 199.859375 162.96875 199.703125 162.96875 Z M 199.703125 162.96875 " fill-opacity="1" fill-rule="nonzero"/><path fill="#563025" d="M 197.25 153.746094 L 194.328125 153.304688 L 194.40625 152.816406 L 197.324219 153.257812 Z M 197.25 153.746094 " fill-opacity="1" fill-rule="nonzero"/><path fill="#563025" d="M 144.386719 159.65625 C 144.375 159.570312 142.949219 151.550781 141.417969 146.835938 L 141.886719 146.683594 C 143.429688 151.4375 144.855469 159.496094 144.875 159.578125 Z M 144.386719 159.65625 " fill-opacity="1" fill-rule="nonzero"/><path fill="#563025" d="M 124.269531 159.4375 L 124.0625 158.988281 C 124.167969 158.941406 134.066406 154.488281 144.328125 156.722656 L 144.226562 157.210938 C 134.128906 155.015625 124.363281 159.390625 124.269531 159.4375 Z M 124.269531 159.4375 " fill-opacity="1" fill-rule="nonzero"/><path fill="#563025" d="M 140.695312 179.902344 L 140.28125 179.621094 C 143.023438 175.574219 147.757812 174.53125 147.953125 174.484375 L 148.058594 174.972656 C 148.011719 174.992188 143.324219 176.023438 140.695312 179.902344 Z M 140.695312 179.902344 " fill-opacity="1" fill-rule="nonzero"/><path fill="#f9e4d9" d="M 117.574219 10.105469 L 79.320312 10.105469 C 76.589844 10.105469 74.382812 12.320312 74.382812 15.046875 L 74.382812 35.667969 C 74.382812 38.402344 76.597656 40.609375 79.320312 40.609375 L 93.183594 40.609375 L 98.640625 46.066406 L 104.097656 40.609375 L 117.5625 40.609375 C 120.296875 40.609375 122.503906 38.390625 122.503906 35.667969 L 122.503906 15.054688 C 122.511719 12.320312 120.304688 10.105469 117.574219 10.105469 Z M 117.574219 10.105469 " fill-opacity="1" fill-rule="nonzero"/><path fill="#d54f56" d="M 98.125 33.835938 L 90.046875 26.617188 C 87.765625 24.566406 87.558594 21.054688 89.597656 18.765625 C 91.632812 16.472656 95.136719 16.265625 97.429688 18.3125 L 98.414062 19.1875 L 99.644531 18.171875 C 102.011719 16.21875 105.503906 16.558594 107.449219 18.921875 C 109.394531 21.289062 109.066406 24.804688 106.699219 26.757812 Z M 98.125 33.835938 " fill-opacity="1" fill-rule="nonzero"/><path fill="#563025" d="M 47.15625 363.242188 L 309.140625 363.242188 L 309.140625 363.738281 L 47.15625 363.738281 Z M 47.15625 363.242188 " fill-opacity="1" fill-rule="nonzero"/><path fill="#563025" d="M 6.324219 374.492188 L 168.089844 374.492188 L 168.089844 374.992188 L 6.324219 374.992188 Z M 6.324219 374.492188 " fill-opacity="1" fill-rule="nonzero"/><path fill="#563025" d="M 103.503906 99.765625 L 53.34375 99.765625 C 49.597656 99.765625 46.566406 102.796875 46.566406 106.546875 L 46.566406 130.53125 C 46.566406 134.277344 49.597656 137.3125 53.34375 137.3125 L 86.007812 137.3125 L 97.859375 147.050781 L 97.859375 137.3125 L 103.503906 137.3125 C 107.253906 137.3125 110.285156 134.277344 110.285156 130.53125 L 110.285156 106.546875 C 110.285156 102.808594 107.253906 99.765625 103.503906 99.765625 Z M 103.503906 99.765625 " fill-opacity="1" fill-rule="nonzero"/><path fill="#f9e4d9" d="M 66.285156 117.648438 C 66.285156 118.097656 66.199219 118.535156 66.027344 118.949219 C 65.855469 119.367188 65.609375 119.738281 65.289062 120.058594 C 64.96875 120.375 64.601562 120.625 64.183594 120.796875 C 63.765625 120.96875 63.328125 121.054688 62.878906 121.054688 C 62.425781 121.054688 61.992188 120.96875 61.574219 120.796875 C 61.15625 120.625 60.785156 120.375 60.46875 120.058594 C 60.148438 119.738281 59.902344 119.367188 59.726562 118.949219 C 59.554688 118.535156 59.46875 118.097656 59.46875 117.648438 C 59.46875 117.195312 59.554688 116.757812 59.726562 116.34375 C 59.902344 115.925781 60.148438 115.554688 60.46875 115.234375 C 60.785156 114.917969 61.15625 114.667969 61.574219 114.496094 C 61.992188 114.324219 62.425781 114.238281 62.878906 114.238281 C 63.328125 114.238281 63.765625 114.324219 64.183594 114.496094 C 64.601562 114.667969 64.96875 114.917969 65.289062 115.234375 C 65.609375 115.554688 65.855469 115.925781 66.027344 116.34375 C 66.199219 116.757812 66.285156 117.195312 66.285156 117.648438 Z M 66.285156 117.648438 " fill-opacity="1" fill-rule="nonzero"/><path fill="#f9e4d9" d="M 80.691406 117.648438 C 80.691406 118.097656 80.605469 118.535156 80.433594 118.949219 C 80.261719 119.367188 80.015625 119.738281 79.695312 120.058594 C 79.375 120.375 79.007812 120.625 78.589844 120.796875 C 78.171875 120.96875 77.734375 121.054688 77.285156 121.054688 C 76.832031 121.054688 76.398438 120.96875 75.980469 120.796875 C 75.5625 120.625 75.191406 120.375 74.875 120.058594 C 74.554688 119.738281 74.308594 119.367188 74.132812 118.949219 C 73.960938 118.535156 73.875 118.097656 73.875 117.648438 C 73.875 117.195312 73.960938 116.757812 74.132812 116.34375 C 74.308594 115.925781 74.554688 115.554688 74.875 115.234375 C 75.191406 114.917969 75.5625 114.667969 75.980469 114.496094 C 76.398438 114.324219 76.832031 114.238281 77.285156 114.238281 C 77.734375 114.238281 78.171875 114.324219 78.589844 114.496094 C 79.007812 114.667969 79.375 114.917969 79.695312 115.234375 C 80.015625 115.554688 80.261719 115.925781 80.433594 116.34375 C 80.605469 116.757812 80.691406 117.195312 80.691406 117.648438 Z M 80.691406 117.648438 " fill-opacity="1" fill-rule="nonzero"/><path fill="#f9e4d9" d="M 95.109375 117.648438 C 95.109375 118.097656 95.023438 118.535156 94.847656 118.949219 C 94.675781 119.367188 94.429688 119.738281 94.109375 120.058594 C 93.789062 120.375 93.421875 120.625 93.003906 120.796875 C 92.585938 120.96875 92.152344 121.054688 91.699219 121.054688 C 91.246094 121.054688 90.8125 120.96875 90.394531 120.796875 C 89.976562 120.625 89.609375 120.375 89.289062 120.058594 C 88.96875 119.738281 88.722656 119.367188 88.550781 118.949219 C 88.378906 118.535156 88.289062 118.097656 88.289062 117.648438 C 88.289062 117.195312 88.378906 116.757812 88.550781 116.34375 C 88.722656 115.925781 88.96875 115.554688 89.289062 115.234375 C 89.609375 114.917969 89.976562 114.667969 90.394531 114.496094 C 90.8125 114.324219 91.246094 114.238281 91.699219 114.238281 C 92.152344 114.238281 92.585938 114.324219 93.003906 114.496094 C 93.421875 114.667969 93.789062 114.917969 94.109375 115.234375 C 94.429688 115.554688 94.675781 115.925781 94.847656 116.34375 C 95.023438 116.757812 95.109375 117.195312 95.109375 117.648438 Z M 95.109375 117.648438 " fill-opacity="1" fill-rule="nonzero"/><path fill="#563025" d="M 225.5 83.574219 L 264.632812 83.574219 C 267.554688 83.574219 269.921875 85.941406 269.921875 88.863281 L 269.921875 107.578125 C 269.921875 110.5 267.554688 112.867188 264.632812 112.867188 L 239.144531 112.867188 L 229.894531 120.464844 L 229.894531 112.867188 L 225.488281 112.867188 C 222.570312 112.867188 220.203125 110.5 220.203125 107.578125 L 220.203125 88.863281 C 220.210938 85.949219 222.578125 83.574219 225.5 83.574219 Z M 225.5 83.574219 " fill-opacity="1" fill-rule="nonzero"/><path fill="#563025" d="M 229.652344 120.988281 L 229.652344 113.121094 L 225.5 113.121094 C 222.449219 113.121094 219.957031 110.632812 219.957031 107.578125 L 219.957031 88.863281 C 219.957031 85.808594 222.449219 83.320312 225.5 83.320312 L 264.632812 83.320312 C 267.6875 83.320312 270.175781 85.808594 270.175781 88.863281 L 270.175781 107.578125 C 270.175781 110.632812 267.6875 113.121094 264.632812 113.121094 L 239.238281 113.121094 Z M 225.5 83.828125 C 222.71875 83.828125 220.457031 86.089844 220.457031 88.871094 L 220.457031 107.589844 C 220.457031 110.367188 222.71875 112.632812 225.5 112.632812 L 230.148438 112.632812 L 230.148438 119.949219 L 239.0625 112.632812 L 264.632812 112.632812 C 267.414062 112.632812 269.675781 110.367188 269.675781 107.589844 L 269.675781 88.871094 C 269.675781 86.089844 267.414062 83.828125 264.632812 83.828125 Z M 225.5 83.828125 " fill-opacity="1" fill-rule="nonzero"/><path fill="#efbf62" d="M 255.917969 97.34375 C 255.917969 98.054688 255.847656 98.761719 255.710938 99.460938 C 255.570312 100.160156 255.363281 100.839844 255.09375 101.496094 C 254.820312 102.15625 254.484375 102.78125 254.089844 103.375 C 253.691406 103.964844 253.242188 104.515625 252.738281 105.019531 C 252.234375 105.523438 251.6875 105.972656 251.09375 106.367188 C 250.5 106.765625 249.875 107.097656 249.214844 107.371094 C 248.558594 107.644531 247.878906 107.851562 247.179688 107.988281 C 246.480469 108.128906 245.773438 108.199219 245.0625 108.199219 C 244.347656 108.199219 243.644531 108.128906 242.945312 107.988281 C 242.246094 107.851562 241.566406 107.644531 240.90625 107.371094 C 240.25 107.097656 239.625 106.765625 239.03125 106.367188 C 238.4375 105.972656 237.890625 105.523438 237.386719 105.019531 C 236.882812 104.515625 236.429688 103.964844 236.035156 103.375 C 235.640625 102.78125 235.304688 102.15625 235.03125 101.496094 C 234.757812 100.839844 234.554688 100.160156 234.414062 99.460938 C 234.273438 98.761719 234.207031 98.054688 234.207031 97.34375 C 234.207031 96.628906 234.273438 95.921875 234.414062 95.222656 C 234.554688 94.523438 234.757812 93.847656 235.03125 93.1875 C 235.304688 92.527344 235.640625 91.902344 236.035156 91.3125 C 236.429688 90.71875 236.882812 90.167969 237.386719 89.664062 C 237.890625 89.160156 238.4375 88.710938 239.03125 88.316406 C 239.625 87.917969 240.25 87.585938 240.90625 87.3125 C 241.566406 87.039062 242.246094 86.832031 242.945312 86.695312 C 243.644531 86.554688 244.347656 86.484375 245.0625 86.484375 C 245.773438 86.484375 246.480469 86.554688 247.179688 86.695312 C 247.878906 86.832031 248.558594 87.039062 249.214844 87.3125 C 249.875 87.585938 250.5 87.917969 251.09375 88.316406 C 251.6875 88.710938 252.234375 89.160156 252.738281 89.664062 C 253.242188 90.167969 253.691406 90.71875 254.089844 91.3125 C 254.484375 91.902344 254.820312 92.527344 255.09375 93.1875 C 255.363281 93.847656 255.570312 94.523438 255.710938 95.222656 C 255.847656 95.921875 255.917969 96.628906 255.917969 97.34375 Z M 255.917969 97.34375 " fill-opacity="1" fill-rule="nonzero"/><path fill="#563025" d="M 241.585938 95.859375 C 241.585938 96.035156 241.554688 96.203125 241.488281 96.363281 C 241.417969 96.527344 241.324219 96.671875 241.199219 96.792969 C 241.074219 96.917969 240.933594 97.015625 240.769531 97.082031 C 240.609375 97.148438 240.4375 97.183594 240.261719 97.183594 C 240.085938 97.183594 239.917969 97.148438 239.757812 97.082031 C 239.59375 97.015625 239.449219 96.917969 239.328125 96.792969 C 239.203125 96.671875 239.105469 96.527344 239.039062 96.363281 C 238.972656 96.203125 238.9375 96.035156 238.9375 95.859375 C 238.9375 95.683594 238.972656 95.515625 239.039062 95.351562 C 239.105469 95.1875 239.203125 95.046875 239.328125 94.921875 C 239.449219 94.796875 239.59375 94.703125 239.757812 94.636719 C 239.917969 94.566406 240.085938 94.535156 240.261719 94.535156 C 240.4375 94.535156 240.609375 94.566406 240.769531 94.636719 C 240.933594 94.703125 241.074219 94.796875 241.199219 94.921875 C 241.324219 95.046875 241.417969 95.1875 241.488281 95.351562 C 241.554688 95.515625 241.585938 95.683594 241.585938 95.859375 Z M 241.585938 95.859375 " fill-opacity="1" fill-rule="nonzero"/><path fill="#563025" d="M 251.195312 95.859375 C 251.195312 96.035156 251.160156 96.203125 251.09375 96.363281 C 251.027344 96.527344 250.929688 96.671875 250.808594 96.792969 C 250.683594 96.917969 250.539062 97.015625 250.378906 97.082031 C 250.214844 97.148438 250.046875 97.183594 249.871094 97.183594 C 249.695312 97.183594 249.527344 97.148438 249.363281 97.082031 C 249.203125 97.015625 249.058594 96.917969 248.933594 96.792969 C 248.808594 96.671875 248.714844 96.527344 248.648438 96.363281 C 248.578125 96.203125 248.546875 96.035156 248.546875 95.859375 C 248.546875 95.683594 248.578125 95.515625 248.648438 95.351562 C 248.714844 95.1875 248.808594 95.046875 248.933594 94.921875 C 249.058594 94.796875 249.203125 94.703125 249.363281 94.636719 C 249.527344 94.566406 249.695312 94.535156 249.871094 94.535156 C 250.046875 94.535156 250.214844 94.566406 250.378906 94.636719 C 250.539062 94.703125 250.683594 94.796875 250.808594 94.921875 C 250.929688 95.046875 251.027344 95.1875 251.09375 95.351562 C 251.160156 95.515625 251.195312 95.683594 251.195312 95.859375 Z M 251.195312 95.859375 " fill-opacity="1" fill-rule="nonzero"/><path fill="#563025" d="M 242.152344 101.316406 C 242.722656 102.328125 243.824219 103.015625 245.070312 103.015625 C 246.320312 103.015625 247.417969 102.328125 247.992188 101.316406 Z M 242.152344 101.316406 " fill-opacity="1" fill-rule="nonzero"/><path fill="#d54f56" d="M 249.542969 -0.0195312 L 201.242188 -0.0195312 C 199.175781 -0.0195312 197.496094 1.664062 197.496094 3.726562 L 197.496094 28.351562 C 197.496094 30.417969 199.175781 32.101562 201.242188 32.101562 L 217.84375 32.101562 L 233.746094 47.324219 L 234.710938 32.101562 L 249.542969 32.101562 C 251.609375 32.101562 253.289062 30.417969 253.289062 28.351562 L 253.289062 3.726562 C 253.289062 1.652344 251.609375 -0.0195312 249.542969 -0.0195312 Z M 249.542969 -0.0195312 " fill-opacity="1" fill-rule="nonzero"/><path fill="#f9e4d9" d="M 213.375 22.5 L 207.1875 16.988281 C 205.441406 15.429688 205.28125 12.746094 206.839844 10.996094 C 208.398438 9.25 211.082031 9.089844 212.832031 10.648438 L 213.582031 11.316406 L 214.519531 10.539062 C 216.332031 9.042969 219.011719 9.308594 220.503906 11.109375 C 221.996094 12.921875 221.734375 15.597656 219.929688 17.09375 Z M 213.375 22.5 " fill-opacity="1" fill-rule="nonzero"/><path fill="#f9e4d9" d="M 227.050781 12.921875 L 225.835938 12.921875 L 225.835938 11.308594 L 228.851562 11.308594 L 228.851562 20.425781 L 227.050781 20.425781 Z M 227.050781 12.921875 " fill-opacity="1" fill-rule="nonzero"/><path fill="#f9e4d9" d="M 230.476562 19.007812 C 232.542969 17.261719 234.703125 15.644531 234.703125 13.964844 C 234.703125 13.148438 234.335938 12.601562 233.480469 12.601562 C 232.648438 12.601562 232.175781 13.203125 232.167969 14.171875 L 230.46875 14.171875 C 230.535156 12.085938 231.867188 11.121094 233.511719 11.121094 C 235.472656 11.121094 236.460938 12.285156 236.460938 13.871094 C 236.460938 15.984375 234.421875 17.636719 232.964844 18.867188 L 236.65625 18.867188 L 236.65625 20.3125 L 230.476562 20.3125 Z M 230.476562 19.007812 " fill-opacity="1" fill-rule="nonzero"/><path fill="#f9e4d9" d="M 237.660156 19.007812 C 239.726562 17.261719 241.886719 15.644531 241.886719 13.964844 C 241.886719 13.148438 241.519531 12.601562 240.667969 12.601562 C 239.832031 12.601562 239.363281 13.203125 239.351562 14.171875 L 237.652344 14.171875 C 237.71875 12.085938 239.050781 11.121094 240.695312 11.121094 C 242.65625 11.121094 243.644531 12.285156 243.644531 13.871094 C 243.644531 15.984375 241.605469 17.636719 240.148438 18.867188 L 243.839844 18.867188 L 243.839844 20.3125 L 237.660156 20.3125 Z M 237.660156 19.007812 " fill-opacity="1" fill-rule="nonzero"/><path fill="#f9e4d9" d="M 289.925781 260.453125 L 277.425781 250.96875 L 265.816406 260.453125 L 265.816406 231.582031 L 289.925781 231.582031 Z M 289.925781 260.453125 " fill-opacity="1" fill-rule="nonzero"/><path fill="#d54f56" d="M 43.398438 170.886719 C 43.398438 171.589844 43.363281 172.292969 43.296875 172.992188 C 43.226562 173.695312 43.125 174.390625 42.988281 175.082031 C 42.847656 175.769531 42.679688 176.453125 42.472656 177.125 C 42.269531 177.800781 42.03125 178.460938 41.761719 179.113281 C 41.492188 179.761719 41.191406 180.398438 40.863281 181.019531 C 40.53125 181.640625 40.167969 182.246094 39.777344 182.828125 C 39.386719 183.414062 38.964844 183.980469 38.519531 184.523438 C 38.074219 185.066406 37.601562 185.589844 37.101562 186.085938 C 36.605469 186.585938 36.085938 187.058594 35.539062 187.503906 C 34.996094 187.949219 34.429688 188.371094 33.847656 188.761719 C 33.261719 189.152344 32.65625 189.511719 32.035156 189.84375 C 31.414062 190.175781 30.78125 190.476562 30.128906 190.746094 C 29.480469 191.015625 28.816406 191.253906 28.144531 191.457031 C 27.46875 191.664062 26.785156 191.832031 26.097656 191.96875 C 25.40625 192.109375 24.710938 192.210938 24.011719 192.28125 C 23.308594 192.347656 22.605469 192.382812 21.902344 192.382812 C 21.199219 192.382812 20.496094 192.347656 19.796875 192.28125 C 19.09375 192.210938 18.398438 192.109375 17.707031 191.96875 C 17.019531 191.832031 16.335938 191.664062 15.664062 191.457031 C 14.988281 191.253906 14.328125 191.015625 13.675781 190.746094 C 13.027344 190.476562 12.390625 190.175781 11.769531 189.84375 C 11.148438 189.511719 10.546875 189.152344 9.960938 188.761719 C 9.375 188.371094 8.808594 187.949219 8.265625 187.503906 C 7.722656 187.058594 7.199219 186.585938 6.703125 186.085938 C 6.203125 185.589844 5.730469 185.066406 5.285156 184.523438 C 4.839844 183.980469 4.417969 183.414062 4.027344 182.828125 C 3.636719 182.246094 3.277344 181.640625 2.945312 181.019531 C 2.613281 180.398438 2.3125 179.761719 2.042969 179.113281 C 1.773438 178.460938 1.535156 177.800781 1.332031 177.125 C 1.128906 176.453125 0.957031 175.769531 0.820312 175.082031 C 0.679688 174.390625 0.578125 173.695312 0.507812 172.992188 C 0.441406 172.292969 0.40625 171.589844 0.40625 170.886719 C 0.40625 170.183594 0.441406 169.480469 0.507812 168.78125 C 0.578125 168.078125 0.679688 167.382812 0.820312 166.691406 C 0.957031 166.003906 1.128906 165.320312 1.332031 164.644531 C 1.535156 163.972656 1.773438 163.308594 2.042969 162.660156 C 2.3125 162.007812 2.613281 161.375 2.945312 160.753906 C 3.277344 160.132812 3.636719 159.527344 4.027344 158.945312 C 4.417969 158.359375 4.839844 157.792969 5.285156 157.25 C 5.730469 156.703125 6.203125 156.183594 6.703125 155.6875 C 7.199219 155.1875 7.722656 154.714844 8.265625 154.269531 C 8.808594 153.824219 9.375 153.402344 9.960938 153.011719 C 10.546875 152.621094 11.148438 152.261719 11.769531 151.929688 C 12.390625 151.597656 13.027344 151.296875 13.675781 151.027344 C 14.328125 150.757812 14.988281 150.519531 15.664062 150.316406 C 16.335938 150.109375 17.019531 149.941406 17.707031 149.800781 C 18.398438 149.664062 19.09375 149.5625 19.796875 149.492188 C 20.496094 149.425781 21.199219 149.390625 21.902344 149.390625 C 22.605469 149.390625 23.308594 149.425781 24.011719 149.492188 C 24.710938 149.5625 25.40625 149.664062 26.097656 149.800781 C 26.785156 149.941406 27.46875 150.109375 28.144531 150.316406 C 28.816406 150.519531 29.480469 150.757812 30.128906 151.027344 C 30.78125 151.296875 31.414062 151.597656 32.035156 151.929688 C 32.65625 152.261719 33.261719 152.621094 33.847656 153.011719 C 34.429688 153.402344 34.996094 153.824219 35.539062 154.269531 C 36.085938 154.714844 36.605469 155.1875 37.101562 155.6875 C 37.601562 156.183594 38.074219 156.703125 38.519531 157.25 C 38.964844 157.792969 39.386719 158.359375 39.777344 158.945312 C 40.167969 159.527344 40.53125 160.132812 40.863281 160.753906 C 41.191406 161.375 41.492188 162.007812 41.761719 162.660156 C 42.03125 163.308594 42.269531 163.972656 42.472656 164.644531 C 42.679688 165.320312 42.847656 166.003906 42.988281 166.691406 C 43.125 167.382812 43.226562 168.078125 43.296875 168.78125 C 43.363281 169.480469 43.398438 170.183594 43.398438 170.886719 Z M 43.398438 170.886719 " fill-opacity="1" fill-rule="nonzero"/><path fill="#563025" d="M 0.660156 170.886719 L 0.160156 170.886719 C 0.160156 158.894531 9.917969 149.136719 21.910156 149.136719 L 21.910156 149.632812 C 10.191406 149.644531 0.660156 159.175781 0.660156 170.886719 Z M 0.660156 170.886719 " fill-opacity="1" fill-rule="nonzero"/><path fill="#f9e4d9" d="M 27.105469 166.566406 C 27.105469 166.90625 27.070312 167.246094 27.003906 167.582031 C 26.9375 167.917969 26.839844 168.242188 26.710938 168.558594 C 26.578125 168.875 26.417969 169.171875 26.230469 169.457031 C 26.039062 169.742188 25.824219 170.003906 25.582031 170.246094 C 25.339844 170.488281 25.078125 170.703125 24.792969 170.890625 C 24.507812 171.082031 24.210938 171.242188 23.894531 171.375 C 23.578125 171.503906 23.253906 171.601562 22.917969 171.667969 C 22.582031 171.734375 22.246094 171.769531 21.902344 171.769531 C 21.5625 171.769531 21.222656 171.734375 20.886719 171.667969 C 20.550781 171.601562 20.226562 171.503906 19.910156 171.375 C 19.597656 171.242188 19.296875 171.082031 19.011719 170.890625 C 18.726562 170.703125 18.464844 170.488281 18.222656 170.246094 C 17.980469 170.003906 17.765625 169.742188 17.578125 169.457031 C 17.386719 169.171875 17.226562 168.875 17.097656 168.558594 C 16.964844 168.242188 16.867188 167.917969 16.800781 167.582031 C 16.734375 167.246094 16.699219 166.90625 16.699219 166.566406 C 16.699219 166.226562 16.734375 165.886719 16.800781 165.550781 C 16.867188 165.214844 16.964844 164.890625 17.097656 164.574219 C 17.226562 164.261719 17.386719 163.960938 17.578125 163.675781 C 17.765625 163.390625 17.980469 163.128906 18.222656 162.886719 C 18.464844 162.644531 18.726562 162.429688 19.011719 162.242188 C 19.296875 162.050781 19.597656 161.890625 19.910156 161.757812 C 20.226562 161.628906 20.550781 161.53125 20.886719 161.464844 C 21.222656 161.398438 21.5625 161.363281 21.902344 161.363281 C 22.246094 161.363281 22.582031 161.398438 22.917969 161.464844 C 23.253906 161.53125 23.578125 161.628906 23.894531 161.757812 C 24.210938 161.890625 24.507812 162.050781 24.792969 162.242188 C 25.078125 162.429688 25.339844 162.644531 25.582031 162.886719 C 25.824219 163.128906 26.039062 163.390625 26.230469 163.675781 C 26.417969 163.960938 26.578125 164.261719 26.710938 164.574219 C 26.839844 164.890625 26.9375 165.214844 27.003906 165.550781 C 27.070312 165.886719 27.105469 166.226562 27.105469 166.566406 Z M 27.105469 166.566406 " fill-opacity="1" fill-rule="nonzero"/><path fill="#f9e4d9" d="M 30.109375 180.417969 L 13.703125 180.417969 L 13.703125 178.550781 C 13.703125 175.226562 16.398438 172.539062 19.714844 172.539062 L 24.089844 172.539062 C 27.414062 172.539062 30.101562 175.234375 30.101562 178.550781 L 30.101562 180.417969 Z M 30.109375 180.417969 " fill-opacity="1" fill-rule="nonzero"/><path fill="#efbf62" d="M 300.648438 52.085938 C 292.59375 52.058594 286.027344 58.59375 286 66.640625 C 285.972656 74.699219 292.507812 81.265625 300.554688 81.292969 C 308.605469 81.320312 315.179688 74.785156 315.207031 66.734375 C 315.234375 58.6875 308.699219 52.113281 300.648438 52.085938 Z M 300.640625 53.746094 C 301.65625 54.808594 304.039062 57.589844 305.289062 61.503906 C 302.179688 62.398438 299.054688 62.378906 295.964844 61.429688 C 297.242188 57.542969 299.617188 54.800781 300.640625 53.746094 Z M 305.5625 70.566406 C 302.253906 69.609375 298.914062 69.617188 295.625 70.578125 C 294.902344 67.703125 295.023438 65.0625 295.589844 62.761719 C 297.277344 63.28125 298.976562 63.550781 300.6875 63.550781 C 302.339844 63.5625 304.003906 63.308594 305.644531 62.839844 C 306.179688 65.121094 306.285156 67.730469 305.5625 70.566406 Z M 305.167969 71.890625 C 304.339844 74.3125 302.886719 76.886719 300.566406 79.554688 C 298.273438 76.886719 296.835938 74.324219 296.019531 71.910156 C 299.042969 71.007812 302.113281 71.007812 305.167969 71.890625 Z M 306.894531 62.433594 C 308.625 61.8125 310.292969 60.949219 311.890625 59.851562 C 313.113281 61.863281 313.835938 64.21875 313.824219 66.746094 C 313.816406 69.269531 313.085938 71.617188 311.84375 73.621094 C 310.257812 72.5 308.585938 71.628906 306.847656 71 C 307.65625 67.851562 307.503906 64.960938 306.894531 62.433594 Z M 311.113281 58.707031 C 309.636719 59.71875 308.097656 60.527344 306.519531 61.101562 C 305.421875 57.683594 303.5625 55.0625 302.332031 53.597656 C 305.910156 54.066406 309.027344 55.964844 311.113281 58.707031 Z M 298.949219 53.585938 C 297.71875 55.042969 295.851562 57.625 294.734375 61.007812 C 293.203125 60.425781 291.679688 59.609375 290.1875 58.566406 C 292.292969 55.878906 295.410156 54.027344 298.949219 53.585938 Z M 289.398438 59.691406 C 291.023438 60.820312 292.675781 61.710938 294.347656 62.332031 C 293.699219 64.886719 293.53125 67.816406 294.328125 71 C 292.65625 71.617188 290.996094 72.492188 289.363281 73.621094 C 288.101562 71.589844 287.371094 69.207031 287.378906 66.640625 C 287.378906 64.097656 288.132812 61.710938 289.398438 59.691406 Z M 290.140625 74.753906 C 291.652344 73.722656 293.183594 72.90625 294.714844 72.332031 C 295.503906 74.707031 296.855469 77.214844 298.960938 79.800781 C 295.382812 79.359375 292.246094 77.480469 290.140625 74.753906 Z M 302.152344 79.816406 C 304.285156 77.226562 305.65625 74.707031 306.464844 72.324219 C 308.039062 72.90625 309.601562 73.730469 311.066406 74.753906 C 308.941406 77.5 305.769531 79.386719 302.152344 79.816406 Z M 302.152344 79.816406 " fill-opacity="1" fill-rule="nonzero"/><path fill="#d54f56" d="M 272.84375 139.125 L 323 139.125 C 326.75 139.125 329.78125 142.15625 329.78125 145.90625 L 329.78125 169.890625 C 329.78125 173.636719 326.75 176.671875 323 176.671875 L 290.339844 176.671875 L 278.484375 186.410156 L 278.484375 176.671875 L 272.84375 176.671875 C 269.09375 176.671875 266.0625 173.636719 266.0625 169.890625 L 266.0625 145.90625 C 266.0625 142.15625 269.09375 139.125 272.84375 139.125 Z M 272.84375 139.125 " fill-opacity="1" fill-rule="nonzero"/><path fill="#f9e4d9" d="M 310.753906 148.449219 L 304.257812 148.449219 L 303.644531 147.050781 C 303.457031 146.628906 303.042969 146.355469 302.585938 146.355469 L 293.277344 146.355469 C 292.816406 146.355469 292.394531 146.628906 292.214844 147.050781 L 291.605469 148.449219 L 285.105469 148.449219 C 283.96875 148.449219 283.039062 149.378906 283.039062 150.515625 L 283.039062 164.453125 C 283.039062 165.589844 283.96875 166.519531 285.105469 166.519531 L 310.765625 166.519531 C 311.902344 166.519531 312.832031 165.589844 312.832031 164.453125 L 312.832031 150.515625 C 312.8125 149.371094 311.882812 148.449219 310.753906 148.449219 Z M 297.917969 162.085938 C 295.390625 162.085938 293.34375 160.039062 293.34375 157.511719 C 293.34375 154.988281 295.390625 152.941406 297.917969 152.941406 C 300.441406 152.941406 302.492188 154.996094 302.492188 157.511719 C 302.492188 160.050781 300.441406 162.085938 297.917969 162.085938 Z M 301.984375 153.53125 C 301.683594 153.53125 301.4375 153.285156 301.4375 152.988281 C 301.4375 152.6875 301.683594 152.441406 301.984375 152.441406 C 302.285156 152.441406 302.527344 152.6875 302.527344 152.988281 C 302.527344 153.285156 302.285156 153.53125 301.984375 153.53125 Z M 301.984375 153.53125 " fill-opacity="1" fill-rule="nonzero"/><path fill="#563025" d="M 300.949219 97.652344 L 302.246094 100.019531 L 304.613281 101.316406 L 302.246094 102.609375 L 300.949219 104.976562 L 299.664062 102.609375 L 297.296875 101.316406 L 299.664062 100.019531 Z M 300.949219 97.652344 " fill-opacity="1" fill-rule="nonzero"/><path fill="#f9e4d9" d="M 173.414062 26.15625 L 175.507812 29.976562 L 179.332031 32.070312 L 175.507812 34.167969 L 173.414062 37.988281 L 171.320312 34.167969 L 167.5 32.070312 L 171.320312 29.976562 Z M 173.414062 26.15625 " fill-opacity="1" fill-rule="nonzero"/><path fill="#f9e4d9" d="M 20.445312 89.164062 L 22.542969 92.984375 L 26.363281 95.078125 L 22.542969 97.171875 L 20.445312 100.996094 L 18.351562 97.171875 L 14.53125 95.078125 L 18.351562 92.984375 Z M 20.445312 89.164062 " fill-opacity="1" fill-rule="nonzero"/><path fill="#f9e4d9" d="M 320.484375 208.433594 L 322.578125 212.265625 L 326.402344 214.359375 L 322.578125 216.445312 L 320.484375 220.277344 L 318.390625 216.445312 L 314.566406 214.359375 L 318.390625 212.265625 Z M 320.484375 208.433594 " fill-opacity="1" fill-rule="nonzero"/><path fill="#efbf62" d="M 184.355469 12.253906 L 185.5 14.351562 L 187.597656 15.503906 L 185.5 16.652344 L 184.355469 18.746094 L 183.210938 16.652344 L 181.105469 15.503906 L 183.210938 14.351562 Z M 184.355469 12.253906 " fill-opacity="1" fill-rule="nonzero"/><path fill="#f9e4d9" d="M 50.914062 262.304688 L 52.066406 264.398438 L 54.164062 265.542969 L 52.066406 266.699219 L 50.914062 268.792969 L 49.765625 266.699219 L 47.671875 265.542969 L 49.765625 264.398438 Z M 50.914062 262.304688 " fill-opacity="1" fill-rule="nonzero"/><g fill="#000000" fill-opacity="1"><g transform="translate(32.163924, 213.127154)"><g><path d="M -0.515625 -2.640625 L 0.5 -2.9375 L 1.265625 -0.375 L 1.8125 -0.546875 L 1.046875 -3.109375 L 2.0625 -3.40625 L 1.90625 -3.90625 L -0.671875 -3.140625 Z M -0.515625 -2.640625 "/></g></g></g><g fill="#000000" fill-opacity="1"><g transform="translate(35.018674, 212.231824)"><g><path d="M 2.75 -0.4375 L 3.296875 -0.515625 L 2.796875 -3.671875 L 2.25 -3.59375 L 2.46875 -2.1875 L 0.9375 -1.9375 L 0.71875 -3.359375 L 0.140625 -3.28125 L 0.640625 -0.109375 L 1.21875 -0.1875 L 1.015625 -1.4375 L 2.546875 -1.6875 Z M 2.75 -0.4375 "/></g></g></g><g fill="#000000" fill-opacity="1"><g transform="translate(38.757471, 211.631438)"><g><path d="M 2.71875 -0.015625 L 3.296875 -0.03125 L 3.28125 -1.859375 C 3.28125 -2.84375 2.75 -3.265625 1.921875 -3.265625 C 1.09375 -3.265625 0.609375 -2.8125 0.609375 -1.828125 L 0.625 0 L 1.203125 -0.015625 L 1.203125 -0.78125 L 2.71875 -0.78125 Z M 1.1875 -1.84375 C 1.1875 -2.484375 1.5 -2.75 1.9375 -2.75 C 2.390625 -2.75 2.703125 -2.515625 2.703125 -1.828125 L 2.703125 -1.234375 C 2.5625 -1.234375 1.46875 -1.234375 1.1875 -1.21875 Z M 1.1875 -1.84375 "/></g></g></g><g fill="#000000" fill-opacity="1"><g transform="translate(42.443948, 211.580407)"><g><path d="M 0.65625 0.09375 L 1.21875 0.171875 L 1.5 -1.796875 L 3.203125 0.46875 L 3.359375 0.484375 L 3.8125 -2.703125 L 3.234375 -2.78125 L 2.9375 -0.75 L 1.28125 -3.0625 L 1.109375 -3.09375 Z M 0.65625 0.09375 "/></g></g></g><g fill="#000000" fill-opacity="1"><g transform="translate(46.228771, 212.116356)"><g><path d="M 0.625 0.1875 L 1.1875 0.34375 L 1.578125 -0.984375 L 2.53125 0.734375 L 3.21875 0.9375 L 2.140625 -0.953125 L 4.046875 -2.15625 L 3.375 -2.359375 L 1.640625 -1.21875 L 2.078125 -2.734375 L 1.515625 -2.890625 Z M 0.625 0.1875 "/></g></g></g><g fill="#ff5055" fill-opacity="1"><g transform="translate(23.716387, 225.709181)"><g><path d="M 4.75 -9 L 1.296875 -9 L 1.296875 -7.53125 L 2.21875 -7.53125 L 4.84375 -3.375 L 4.84375 -1.453125 L 3.859375 -1.453125 L 3.859375 0 L 7.421875 0 L 7.421875 -1.453125 L 6.453125 -1.453125 L 6.453125 -3.359375 L 9.078125 -7.53125 L 10 -7.53125 L 10 -9 L 6.546875 -9 L 6.546875 -7.53125 L 7.3125 -7.53125 L 5.671875 -4.828125 L 4 -7.53125 L 4.75 -7.53125 Z M 7.03125 -3.875 L 8.359375 -3.015625 L 8.453125 -3.15625 L 7.140625 -4.03125 Z M 7.453125 -4.53125 L 8.765625 -3.65625 L 8.859375 -3.8125 L 7.546875 -4.671875 Z M 8.6875 -6.484375 L 10 -5.625 L 10.09375 -5.765625 L 8.78125 -6.625 Z M 6.6875 -3.203125 L 7.953125 -2.375 L 8.03125 -2.515625 L 6.734375 -3.375 L 6.6875 -3.296875 Z M 6.84375 -3.5625 L 8.15625 -2.6875 L 8.234375 -2.84375 L 6.9375 -3.703125 Z M 8.484375 -6.15625 L 9.796875 -5.296875 L 9.875 -5.4375 L 8.578125 -6.3125 Z M 7.671875 -4.859375 L 8.96875 -4 L 9.0625 -4.140625 L 7.75 -5 Z M 7.25 -4.203125 L 8.5625 -3.34375 L 8.65625 -3.5 L 7.34375 -4.34375 Z M 8.28125 -5.828125 L 9.578125 -4.96875 L 9.671875 -5.125 L 8.375 -5.96875 Z M 8.078125 -5.5 L 9.375 -4.640625 L 9.46875 -4.78125 L 8.171875 -5.65625 Z M 9.09375 -7.125 L 10.421875 -6.265625 L 10.5 -6.40625 L 9.1875 -7.28125 Z M 4.984375 -7.546875 L 6.25 -6.71875 L 6.25 -6.921875 L 4.984375 -7.75 Z M 4.984375 -8.015625 L 6.25 -7.171875 L 6.25 -7.390625 L 4.984375 -8.21875 Z M 4.984375 -8.46875 L 6.25 -7.640625 L 6.25 -7.84375 L 4.984375 -8.671875 Z M 8.890625 -6.8125 L 10.21875 -5.953125 L 10.296875 -6.09375 L 8.984375 -6.953125 Z M 7.875 -5.1875 L 9.171875 -4.328125 L 9.265625 -4.46875 L 7.953125 -5.328125 Z M 6.6875 -2.734375 L 7.953125 -1.90625 L 7.953125 -2.109375 L 6.6875 -2.9375 Z M 10.234375 -7.765625 L 11.5 -6.9375 L 11.5 -7.140625 L 10.234375 -7.96875 Z M 7.65625 -0.25 L 8.921875 0.578125 L 8.921875 0.375 L 7.65625 -0.453125 Z M 10.234375 -8.234375 L 11.5 -7.390625 L 11.5 -7.59375 L 10.234375 -8.4375 Z M 7.65625 -0.71875 L 8.921875 0.109375 L 8.921875 -0.09375 L 7.65625 -0.921875 Z M 7.65625 -1.6875 L 7.65625 -1.640625 L 7.953125 -1.453125 L 7.953125 -1.65625 L 6.6875 -2.484375 L 6.6875 -2.28125 L 7.578125 -1.6875 Z M 8.921875 0.984375 L 8.921875 0.828125 L 7.65625 0 L 7.65625 0.1875 L 8.84375 0.984375 Z M 11.5 -6.546875 L 11.5 -6.6875 L 10.234375 -7.515625 L 10.234375 -7.3125 L 11.390625 -6.546875 Z M 4.90625 0.234375 L 6.046875 0.984375 L 6.359375 0.984375 L 5.21875 0.234375 Z M 4.640625 -7.3125 L 5.796875 -6.546875 L 6.109375 -6.546875 L 4.96875 -7.3125 Z M 6.296875 0.234375 L 7.453125 0.984375 L 7.75 0.984375 L 6.609375 0.234375 Z M 7 0.234375 L 8.140625 0.984375 L 8.453125 0.984375 L 7.3125 0.234375 Z M 5.609375 0.234375 L 6.75 0.984375 L 7.0625 0.984375 L 5.90625 0.234375 Z M 4.203125 0.234375 L 5.046875 0.78125 L 5.34375 0.984375 L 5.65625 0.984375 L 4.515625 0.234375 Z M 9.546875 -7.3125 L 10.6875 -6.546875 L 11 -6.546875 L 9.859375 -7.3125 Z M 11.5 -8 L 10.234375 -8.84375 L 10.234375 -8.65625 L 11.5 -7.8125 Z M 4.734375 -6.78125 L 5.6875 -6.15625 L 5.484375 -6.5 L 4.515625 -7.140625 Z M 5.203125 -6.015625 L 5.859375 -5.578125 L 5.953125 -5.71875 L 5.921875 -5.75 L 4.984375 -6.359375 C 5.0625 -6.25 5.125 -6.125 5.203125 -6.015625 Z M 7.953125 -1.03125 L 7.953125 -1.1875 L 7.65625 -1.375 L 7.65625 -1.171875 Z M 6.890625 -1.6875 L 7.1875 -1.6875 L 6.6875 -2.015625 L 6.6875 -1.8125 Z M 5.65625 -5.265625 L 5.671875 -5.25 L 5.765625 -5.40625 L 5.453125 -5.609375 Z M 5.65625 -5.265625 "/></g></g></g><g fill="#ff5055" fill-opacity="1"><g transform="translate(34.736107, 225.709181)"><g><path d="M 1.28125 -4.5 C 1.28125 -1.84375 3.328125 0.140625 6.078125 0.140625 C 8.828125 0.140625 10.890625 -1.859375 10.890625 -4.5 C 10.890625 -7.1875 8.875 -9.15625 6.078125 -9.15625 C 3.375 -9.15625 1.28125 -7.109375 1.28125 -4.5 Z M 3 -4.484375 C 3 -6.328125 4.3125 -7.71875 6.09375 -7.71875 C 7.890625 -7.71875 9.1875 -6.328125 9.1875 -4.484375 C 9.1875 -2.65625 7.828125 -1.25 6.09375 -1.25 C 4.34375 -1.25 3 -2.671875 3 -4.484375 Z M 4.84375 -5.015625 L 3.53125 -5.890625 L 3.453125 -5.71875 L 4.765625 -4.84375 Z M 4.703125 -4.65625 L 3.375 -5.515625 C 3.359375 -5.46875 3.359375 -5.40625 3.328125 -5.34375 L 4.625 -4.484375 Z M 11.4375 -0.671875 L 10.125 -1.53125 C 10.078125 -1.484375 10.0625 -1.4375 10.015625 -1.390625 L 11.34375 -0.53125 Z M 10.921875 -0.09375 L 9.609375 -0.953125 L 9.46875 -0.828125 L 10.78125 0.03125 Z M 4.09375 -6.6875 L 5.40625 -5.828125 L 5.53125 -5.9375 L 4.21875 -6.8125 C 4.1875 -6.765625 4.140625 -6.734375 4.09375 -6.6875 Z M 10.640625 -2.375 L 11.953125 -1.5 L 12.03125 -1.65625 L 10.71875 -2.515625 Z M 3.84375 -6.390625 L 5.15625 -5.53125 L 5.265625 -5.65625 L 3.953125 -6.53125 Z M 3.640625 -6.0625 L 4.9375 -5.203125 L 5.03125 -5.34375 L 3.71875 -6.21875 C 3.6875 -6.171875 3.65625 -6.109375 3.640625 -6.0625 Z M 4.578125 -4.28125 L 3.28125 -5.125 L 3.25 -4.9375 L 4.546875 -4.078125 Z M 10.25 -1.703125 L 11.5625 -0.828125 C 11.609375 -0.890625 11.625 -0.9375 11.671875 -0.96875 L 10.359375 -1.84375 C 10.3125 -1.796875 10.28125 -1.75 10.25 -1.703125 Z M 9.765625 -1.09375 L 11.0625 -0.25 L 11.1875 -0.375 L 9.875 -1.234375 Z M 12.34375 -2.828125 L 11.0625 -3.6875 L 11.015625 -3.5 L 12.3125 -2.65625 Z M 5.84375 -6.1875 L 4.5625 -7.046875 L 4.40625 -6.953125 L 5.703125 -6.078125 Z M 6.65625 -6.59375 L 5.40625 -7.40625 L 5.1875 -7.34375 L 6.453125 -6.515625 Z M 3.21875 -4.484375 L 4.484375 -3.65625 C 4.5 -3.71875 4.5 -3.78125 4.5 -3.859375 L 3.21875 -4.703125 Z M 10.59375 0.15625 L 9.296875 -0.6875 L 9.15625 -0.59375 L 10.453125 0.265625 Z M 11.859375 -1.3125 L 10.546875 -2.171875 L 10.46875 -2.015625 L 11.765625 -1.171875 Z M 10.265625 0.390625 L 8.953125 -0.453125 C 8.90625 -0.421875 8.859375 -0.390625 8.796875 -0.359375 L 10.09375 0.484375 Z M 12.375 -3.734375 L 11.125 -4.5625 L 11.125 -4.5 C 11.125 -4.453125 11.109375 -4.40625 11.109375 -4.359375 L 12.390625 -3.515625 C 12.390625 -3.59375 12.390625 -3.65625 12.375 -3.734375 Z M 12.265625 -2.421875 L 10.96875 -3.28125 L 10.921875 -3.109375 L 12.21875 -2.25 Z M 6.21875 -6.40625 L 4.9375 -7.25 C 4.875 -7.234375 4.8125 -7.203125 4.765625 -7.171875 L 6.046875 -6.328125 Z M 10.796875 -2.71875 L 12.109375 -1.875 C 12.125 -1.921875 12.140625 -1.96875 12.15625 -2.03125 L 10.859375 -2.890625 C 10.84375 -2.828125 10.8125 -2.78125 10.796875 -2.71875 Z M 12.375 -3.265625 L 11.09375 -4.109375 C 11.09375 -4.046875 11.078125 -3.984375 11.078125 -3.921875 L 12.375 -3.078125 Z M 12.328125 -4.21875 L 11.09375 -5.046875 C 11.09375 -4.96875 11.109375 -4.890625 11.109375 -4.828125 L 12.359375 -4 Z M 3.25 -4.015625 L 4.484375 -3.203125 L 4.484375 -3.40625 L 3.234375 -4.234375 C 3.234375 -4.15625 3.234375 -4.078125 3.25 -4.015625 Z M 9.453125 0.796875 L 8.1875 -0.03125 L 8 0.03125 L 9.25 0.859375 C 9.328125 0.84375 9.390625 0.8125 9.453125 0.796875 Z M 9.875 0.59375 L 8.59375 -0.234375 L 8.421875 -0.15625 L 9.703125 0.6875 Z M 8.46875 1.046875 L 7.25 0.25 C 7.171875 0.265625 7.078125 0.28125 7 0.296875 L 8.21875 1.09375 Z M 9 0.953125 L 7.734375 0.109375 C 7.671875 0.125 7.59375 0.15625 7.53125 0.171875 L 8.78125 1 C 8.859375 0.96875 8.9375 0.953125 9 0.953125 Z M 3.375 -3.46875 L 4.5625 -2.6875 L 4.515625 -2.921875 L 3.3125 -3.71875 C 3.328125 -3.640625 3.359375 -3.5625 3.375 -3.46875 Z M 7.171875 -6.6875 L 5.984375 -7.484375 C 5.90625 -7.484375 5.796875 -7.46875 5.703125 -7.453125 L 6.9375 -6.65625 C 7.015625 -6.6875 7.109375 -6.6875 7.171875 -6.6875 Z M 12.21875 -4.765625 L 11 -5.546875 L 11.0625 -5.328125 L 12.28125 -4.515625 C 12.265625 -4.59375 12.234375 -4.671875 12.21875 -4.765625 Z M 12.015625 -5.34375 L 10.859375 -6.109375 L 10.9375 -5.859375 L 12.125 -5.078125 C 12.09375 -5.171875 12.046875 -5.265625 12.015625 -5.34375 Z M 7.609375 1.125 C 7.6875 1.125 7.78125 1.125 7.859375 1.109375 L 6.6875 0.328125 L 6.40625 0.359375 L 7.5625 1.125 Z M 7.625 -6.734375 C 7.703125 -6.734375 7.765625 -6.734375 7.84375 -6.71875 L 6.828125 -7.390625 C 6.6875 -7.4375 6.546875 -7.453125 6.40625 -7.46875 L 7.53125 -6.734375 Z M 7.140625 1.09375 L 6.03125 0.375 C 5.90625 0.375 5.8125 0.359375 5.6875 0.359375 L 6.765625 1.0625 Z M 3.6875 -2.796875 L 4.734375 -2.109375 C 4.703125 -2.203125 4.65625 -2.296875 4.625 -2.375 L 3.515625 -3.125 C 3.578125 -3.015625 3.625 -2.90625 3.6875 -2.796875 Z M 11.625 -6.0625 L 10.59375 -6.75 C 10.640625 -6.65625 10.6875 -6.546875 10.734375 -6.453125 L 11.828125 -5.734375 C 11.765625 -5.84375 11.703125 -5.96875 11.625 -6.0625 Z M 6.1875 0.9375 L 5.234375 0.3125 C 5.078125 0.28125 4.9375 0.25 4.796875 0.21875 L 5.5 0.6875 C 5.71875 0.78125 5.9375 0.875 6.1875 0.9375 Z M 10.421875 -7.28125 L 10.1875 -7.421875 C 10.265625 -7.3125 10.34375 -7.203125 10.40625 -7.09375 L 11.28125 -6.515625 C 11.03125 -6.8125 10.734375 -7.0625 10.421875 -7.28125 Z M 4.9375 -1.71875 L 4.90625 -1.734375 L 4.140625 -2.265625 C 4.359375 -2.03125 4.625 -1.84375 4.9375 -1.71875 Z M 4.9375 -1.71875 "/></g></g></g><g fill="#ff5055" fill-opacity="1"><g transform="translate(46.613343, 225.709181)"><g><path d="M 6.984375 -7.53125 L 7.96875 -7.53125 L 7.96875 -3.734375 C 7.96875 -2.015625 7.140625 -1.296875 5.78125 -1.296875 C 4.421875 -1.296875 3.640625 -2.015625 3.640625 -3.71875 L 3.640625 -7.53125 L 4.625 -7.53125 L 4.625 -9 L 1.078125 -9 L 1.078125 -7.53125 L 2.0625 -7.53125 L 2.0625 -3.71875 C 2.0625 -1.03125 3.53125 0.171875 5.78125 0.171875 C 8.03125 0.171875 9.5625 -1.03125 9.5625 -3.71875 L 9.5625 -7.53125 L 10.546875 -7.53125 L 10.546875 -9 L 6.984375 -9 Z M 10.921875 -1.40625 L 9.609375 -2.265625 C 9.59375 -2.203125 9.578125 -2.15625 9.5625 -2.078125 L 10.859375 -1.234375 C 10.890625 -1.296875 10.90625 -1.34375 10.921875 -1.40625 Z M 10.46875 -0.3125 L 9.15625 -1.171875 C 9.125 -1.125 9.078125 -1.09375 9.0625 -1.03125 L 10.359375 -0.171875 C 10.40625 -0.21875 10.421875 -0.265625 10.46875 -0.3125 Z M 9.96875 0.265625 L 8.65625 -0.59375 L 8.53125 -0.453125 L 9.828125 0.390625 Z M 10.796875 -1.03125 L 9.5 -1.875 C 9.484375 -1.8125 9.453125 -1.765625 9.4375 -1.71875 L 10.734375 -0.859375 C 10.765625 -0.90625 10.78125 -0.953125 10.796875 -1.03125 Z M 11.03125 -2.25 L 9.765625 -3.078125 L 9.734375 -2.890625 L 11.015625 -2.046875 C 11.03125 -2.109375 11.03125 -2.171875 11.03125 -2.25 Z M 3.875 -4.453125 L 5.140625 -3.625 L 5.140625 -3.828125 L 3.875 -4.671875 Z M 3.875 -3.53125 L 5.140625 -2.703125 L 5.140625 -2.90625 L 3.875 -3.75 Z M 3.875 -5.375 L 5.140625 -4.546875 L 5.140625 -4.75 L 3.875 -5.59375 Z M 3.875 -4 L 5.140625 -3.15625 L 5.140625 -3.359375 L 3.875 -4.203125 Z M 3.875 -4.90625 L 5.140625 -4.078125 L 5.140625 -4.28125 L 3.875 -5.125 Z M 3.875 -5.828125 L 5.140625 -5 L 5.140625 -5.203125 L 3.875 -6.046875 Z M 3.875 -6.296875 L 5.140625 -5.46875 L 5.140625 -5.671875 L 3.875 -6.515625 Z M 3.875 -6.75 L 5.140625 -5.921875 L 5.140625 -6.125 L 3.875 -6.96875 Z M 11 -1.8125 L 9.703125 -2.65625 L 9.65625 -2.484375 L 10.953125 -1.640625 Z M 9.65625 0.53125 L 8.359375 -0.3125 L 8.203125 -0.21875 L 9.5 0.625 Z M 9.296875 0.75 L 8.015625 -0.109375 L 7.828125 -0.015625 L 9.09375 0.8125 Z M 4.859375 -8.421875 L 6.125 -7.578125 L 6.125 -7.78125 L 4.859375 -8.625 Z M 10.78125 -7.734375 L 12.046875 -6.90625 L 12.046875 -7.109375 L 10.78125 -7.953125 Z M 10.78125 -8.203125 L 12.046875 -7.375 L 12.046875 -7.578125 L 10.78125 -8.40625 Z M 4.859375 -7.5 L 6.125 -6.65625 L 6.125 -6.859375 L 4.859375 -7.703125 Z M 4.859375 -7.953125 L 6.125 -7.109375 L 6.125 -7.3125 L 4.859375 -8.171875 Z M 9.796875 -5.625 L 11.0625 -4.796875 L 11.0625 -5 L 9.796875 -5.828125 Z M 12.046875 -8 L 11.703125 -8.21875 L 10.78125 -8.828125 L 10.78125 -8.625 L 12.046875 -7.796875 Z M 5.140625 -6.546875 L 5.203125 -6.546875 L 4.0625 -7.3125 L 3.875 -7.3125 L 3.875 -7.21875 L 5.140625 -6.390625 Z M 9.265625 -1.375 L 10.5625 -0.515625 L 10.640625 -0.65625 L 9.34375 -1.515625 Z M 10.234375 0 L 8.9375 -0.875 L 8.8125 -0.75 L 10.125 0.109375 Z M 3.921875 -3.046875 L 5.15625 -2.234375 C 5.140625 -2.296875 5.140625 -2.375 5.140625 -2.4375 L 3.890625 -3.28125 Z M 9.796875 -6.546875 L 11.0625 -5.71875 L 11.0625 -5.90625 L 9.796875 -6.75 Z M 9.796875 -5.171875 L 11.0625 -4.34375 L 11.0625 -4.53125 L 9.796875 -5.375 Z M 9.796875 -4.25 L 11.0625 -3.421875 L 11.0625 -3.609375 L 9.796875 -4.453125 Z M 9.796875 -4.703125 L 11.0625 -3.875 L 11.0625 -4.0625 L 9.796875 -4.90625 Z M 9.796875 -3.78125 L 11.0625 -2.953125 L 11.0625 -3.140625 L 9.796875 -4 Z M 9.796875 -7.015625 L 11.0625 -6.1875 L 11.0625 -6.375 L 9.796875 -7.21875 Z M 9.796875 -6.09375 L 11.0625 -5.265625 L 11.0625 -5.453125 L 9.796875 -6.296875 Z M 12.046875 -6.546875 L 12.046875 -6.65625 L 10.78125 -7.484375 L 10.78125 -7.3125 L 10.734375 -7.3125 L 11.890625 -6.546875 Z M 11.0625 -2.6875 L 9.796875 -3.53125 C 9.796875 -3.46875 9.78125 -3.40625 9.78125 -3.34375 L 11.0625 -2.5 Z M 8.859375 0.90625 L 7.59375 0.09375 L 7.390625 0.15625 L 8.640625 0.96875 C 8.71875 0.953125 8.78125 0.9375 8.859375 0.90625 Z M 7.78125 1.125 L 6.59375 0.34375 C 6.5 0.359375 6.40625 0.375 6.328125 0.375 L 7.5 1.15625 C 7.59375 1.15625 7.6875 1.140625 7.78125 1.125 Z M 4.09375 -2.46875 L 5.21875 -1.734375 L 5.1875 -1.953125 L 4 -2.75 C 4.015625 -2.65625 4.0625 -2.5625 4.09375 -2.46875 Z M 8.359375 1.046875 L 7.125 0.25 L 6.890625 0.28125 L 8.109375 1.09375 Z M 4.453125 -7.3125 L 5.59375 -6.546875 L 5.90625 -6.546875 L 4.765625 -7.3125 Z M 10.046875 -7.3125 L 11.1875 -6.546875 L 11.484375 -6.546875 L 10.359375 -7.3125 Z M 7.109375 1.15625 L 5.96875 0.390625 L 5.65625 0.390625 L 6.75 1.109375 Z M 6.265625 1.046875 L 5.234375 0.375 C 5.109375 0.359375 4.984375 0.34375 4.84375 0.3125 L 5.6875 0.890625 C 5.875 0.953125 6.078125 1.015625 6.265625 1.046875 Z M 4.984375 -1.640625 L 4.359375 -2.03125 C 4.53125 -1.859375 4.734375 -1.71875 4.984375 -1.640625 Z M 4.984375 -1.640625 "/></g></g></g></svg>